<svg width="32" height="32" xmlns="http://www.w3.org/2000/svg">
	<path d="M3.48545497 1.00007022C4.91395137.98996989 6 2.07070419 6 3.49484938 6 4.90889425 4.8845987 6.0199295 3.48545497 5.99972886 2.07652702 5.98962854 1.01004683 4.90889425 1.00026261 3.5049497.98069416 2.08080451 2.05695857 1.00007022 3.48545497 1.00007022zM26.0000661 3.46986607c-.0097655 1.42127165 1.064439 2.51998519 2.4902014 2.53006513C29.896499 6.01001114 31 4.9112976 31 3.49002595c0-1.40111176-1.0644391-2.47966542-2.460905-2.48974536-1.4355279-.02015989-2.5292635 1.04831383-2.5390289 2.46958548zM15.5167286 15.0685014H23V11.327656h-7.4832714V4h-.8475836C12.6394052 4 11 5.61736552 11 7.61981806V11.3606635l.0111524 12.0587252c.0111524.8581939.0669145 1.7273904.2230483 2.5635793.4126394 2.2555098 1.5055763 4.1039275 3.6914499 5.1051538 2.7657992 1.2652859 5.2639405 1.1002486 8.0743494.1980447v-4.1039274s-1.5055762.6271417-3.7137546.6271417c-.3122677 0-.6133829-.0110025-.9144982-.0660149-1.4721189-.2640597-2.4089219-1.1992711-2.7100372-2.7506217-.0892193-.4511019-.133829-.9022038-.133829-1.3643083v-8.5599345h-.0111524zM6 11h-.04081633C3.7755102 11 2 12.9131391 2 15.2660803V31h4V11zm24 20V15.2990654C30 12.9241341 28.2278481 11 26.0405063 11H26v20h4z" fill="#FC5C6D" fill-rule="nonzero"/>
</svg>