<?xml version="1.0" encoding="UTF-8"?>
<!DOCTYPE svg PUBLIC "-//W3C//DTD SVG 1.1//EN" "http://www.w3.org/Graphics/SVG/1.1/DTD/svg11.dtd">
<!-- Creator: CorelDRAW 2020 (64 Bit) -->
<svg xmlns="http://www.w3.org/2000/svg" xml:space="preserve" width="101.6mm" height="101.6mm" version="1.1" style="shape-rendering:geometricPrecision; text-rendering:geometricPrecision; image-rendering:optimizeQuality; fill-rule:evenodd; clip-rule:evenodd"
viewBox="0 0 10159.98 10159.98"
 xmlns:xlink="http://www.w3.org/1999/xlink"
 xmlns:xodm="http://www.corel.com/coreldraw/odm/2003">
 <defs>
  <style type="text/css">
   <![CDATA[
    .fil1 {fill:#FFF}
    .fil0 {fill:url(#id0)}
   ]]>
  </style>
  <linearGradient id="id0" gradientUnits="userSpaceOnUse" x1="3475.43" y1="1882.39" x2="6684.55" y2="6559.58">
   <stop offset="0" style="stop-opacity:1; stop-color:#FFF"/>
   <stop offset="0.301961" style="stop-opacity:1; stop-color:#FFF"/>
   <stop offset="1" style="stop-opacity:1; stop-color:#FFF"/>
  </linearGradient>
 </defs>
 <g id="Camada_x0020_1">
  <metadata id="CorelCorpID_0Corel-Layer"/>
  <g id="_2372803351472">
   <path class="fil0" d="M2444.73 6996.03l814.91 0 0 -3742.26 0 0c-448.21,0 -814.91,366.7 -814.91,814.91l0 2927.35zm1608.68 -1391.71c2.63,1330.42 1053.94,1729.41 2185.46,1364.7 0,-250.47 0,-500.95 0,-751.42 -688.01,254.61 -1305.63,191.17 -1370.55,-613.28l0 -1678.04 1391.72 0 0 -677.33 -1391.72 0 0 -1386.89 -137.58 0c-372.54,0 -677.33,304.78 -677.33,677.32l0 3064.94zm3661.84 1391.71l-814.91 0 0 -3742.26 0 0c448.21,0 814.91,366.7 814.91,814.91l0 2927.35zm-407.46 -5651.51c-287.57,0 -520.7,233.13 -520.7,520.7 0,287.57 233.13,520.7 520.7,520.7 287.57,0 520.7,-233.13 520.7,-520.7 0,-287.57 -233.13,-520.7 -520.7,-520.7zm-4455.6 0c287.57,0 520.7,233.13 520.7,520.7 0,287.57 -233.13,520.7 -520.7,520.7 -287.57,0 -520.7,-233.13 -520.7,-520.7 0,-287.57 233.13,-520.7 520.7,-520.7z"/>
   <path class="fil1" d="M5656.48 7947.06l127 0 0 867.83 -127 0 0 -867.83zm846.6 213.85c0,39.69 0,79.38 0,119.07 129.85,-86.48 371.06,-114.23 361.17,115.1 -281.72,-28.89 -389.63,93.73 -399.29,223.2 -6.91,92.73 37.63,186.14 163.14,195.76 100.5,7.7 185.64,-15.35 242.19,-86.96 5.04,-6.38 11.81,-13.06 14.45,-1.29 0,24.7 0,49.39 0,74.09 28.89,-0.44 56.07,-0.89 84.96,-1.33l-0.06 -481.19c-16.87,-229.73 -293.37,-231.27 -466.56,-156.45zm357.86 323.07c7.93,36.85 5.08,78.27 -0.13,109.56 -4.26,25.57 -13.46,58.96 -39.89,86.61 -59.91,62.66 -145.06,70.86 -195.89,40.97 -111.73,-65.71 -22.63,-287.38 235.91,-237.14zm498.07 -475.49l133.62 0 156.11 -174.63 -152.14 0 -137.59 174.63zm231.58 129.65l127 0 0 663.55 -127 0 0 -90.73c-121.27,167.71 -431.27,144.85 -431.27,-160.07l0 -412.75 127 0 0 423.33c0,149.97 116.35,205.37 226.02,117.91 29.06,-23.17 55.53,-55.97 78.25,-95.42l0 -445.82zm-1657.64 19.88l105.86 0 0 -177.92 127 0 0 177.92 174.61 0 0 87.98 -174.61 0 0 363.8c-3.48,136.5 82.58,113.75 173.25,115.07 -0.44,29.54 -0.88,59.09 -1.32,88.63 -176.27,0 -303.82,31.27 -298.93,-203.7l0 -363.8 -105.86 0 0 -87.98z"/>
  </g>
 </g>
</svg>
